
        <svg xmlns="http://www.w3.org/2000/svg" xmlns:xlink="http://www.w3.org/1999/xlink" version="1.1" width="3300" 
        height="2629.1085257682576" viewBox="0 0 3300 2629.1085257682576">
			<rect fill="#ffffff" width="3300" height="2629.1085257682576"/>
			<g transform="scale(15) translate(10, 10)">
				<defs id="SvgjsDefs4320"><linearGradient id="SvgjsLinearGradient4327"><stop id="SvgjsStop4328" stop-color="#fbb040" offset="0"></stop><stop id="SvgjsStop4329" stop-color="#f9ed32" offset="1"></stop></linearGradient></defs><g id="SvgjsG4321" featureKey="symbolFeature-0" transform="matrix(1.5942415031642299,0,0,1.5942415031642299,20.288566445176663,-31.884830063284596)" fill="url(#SvgjsLinearGradient4327)"><path xmlns="http://www.w3.org/2000/svg" d="M81.19,42.661c-0.413-1.272-1.512-2.2-2.836-2.391l-17.414-2.531l-7.788-15.781C52.559,20.76,51.337,20,50,20  c-1.337,0-2.559,0.76-3.151,1.958l-7.788,15.781L21.646,40.27c-1.324,0.191-2.423,1.119-2.837,2.391  c-0.414,1.272-0.068,2.668,0.889,3.603L32.3,58.547l-2.975,17.345c-0.226,1.318,0.315,2.651,1.397,3.437  C31.334,79.773,32.06,80,32.788,80c0.56,0,1.121-0.133,1.635-0.404L50,71.407l15.576,8.189C66.09,79.867,66.652,80,67.211,80  c0.729,0,1.454-0.227,2.065-0.671c1.082-0.786,1.624-2.119,1.398-3.437L67.7,58.547l12.602-12.283  C81.259,45.33,81.604,43.934,81.19,42.661z"></path></g><g id="SvgjsG4322" featureKey="fiAKjI-0" transform="matrix(1.4947682768186041,0,0,1.4947682768186041,-0.26905732047231085,107.00149642758456)" fill="#4c5d6d"><path d="M11.96 20 l-2.4 -8.46 l-2.36 8.46 l-3.68 0 l-3.34 -13.7 l3.26 0 l2.1 9.84 l2.74 -9.84 l2.74 0 l2.72 9.94 l2.18 -9.94 l3.08 0 l-3.34 13.7 l-3.7 0 z M26.96 20.28 c-4 0 -7.26 -3.06 -7.26 -7.12 c0 -4.08 3.26 -7.14 7.26 -7.14 c4.1 0 7.26 3.06 7.26 7.12 c0 4.08 -3.16 7.14 -7.26 7.14 z M26.96 17.4 c2.32 0 4.1 -1.84 4.1 -4.26 c0 -2.38 -1.78 -4.24 -4.1 -4.24 s-4.1 1.86 -4.1 4.26 s1.78 4.24 4.1 4.24 z M40.96 9.14 l-2.28 0 l0 3.66 l2.18 0 c1.34 0 2.16 -0.76 2.16 -1.82 s-0.68 -1.84 -2.06 -1.84 z M38.68 15.34 l0 4.66 l-3.1 0 l0 -13.7 l5.84 0 c2.92 0 4.72 1.88 4.72 4.56 c0 2.14 -1.42 3.92 -3.74 4.38 l4.36 4.76 l-4.04 0 z M50.980000000000004 12.68 l4.88 -6.38 l3.62 0 l-5.44 6.84 l5.6 6.86 l-4.02 0 l-4.64 -5.84 l0 5.84 l-3.1 0 l0 -13.7 l3.1 0 l0 6.38 z M67.34 8.9 c-2.32 0 -4.08 1.86 -4.08 4.22 c0 2.42 1.76 4.26 4.18 4.26 c1.68 0 2.96 -0.88 3.74 -2.22 l2.42 1.68 c-1.32 2.16 -3.34 3.44 -6.12 3.44 c-4.22 0 -7.38 -3.14 -7.38 -7.16 c0 -3.98 3.14 -7.1 7.3 -7.1 c2.7 0 4.84 1.12 6.14 3.42 l-2.46 1.7 c-0.8 -1.32 -2 -2.24 -3.74 -2.24 z M74.80000000000001 20 l0 -13.7 l10.02 0 l0 2.8 l-6.92 0 l0 2.58 l6.4 0 l0 2.72 l-6.4 0 l0 2.8 l6.94 0 l0 2.8 l-10.04 0 z M94.72000000000001 20 l-5.52 -8.68 l0 8.68 l-2.98 0 l0 -13.7 l3.38 0 l5.52 8.7 l0 -8.7 l2.98 0 l0 13.7 l-3.38 0 z M106.42000000000002 20 l-3.1 0 l0 -10.86 l-4.08 0 l0 -2.84 l11.26 0 l0 2.84 l-4.08 0 l0 10.86 z M117.02000000000001 9.14 l-2.28 0 l0 3.66 l2.18 0 c1.34 0 2.16 -0.76 2.16 -1.82 s-0.68 -1.84 -2.06 -1.84 z M114.74000000000001 15.34 l0 4.66 l-3.1 0 l0 -13.7 l5.84 0 c2.92 0 4.72 1.88 4.72 4.56 c0 2.14 -1.42 3.92 -3.74 4.38 l4.36 4.76 l-4.04 0 z M123.94000000000001 20 l0 -13.7 l10.02 0 l0 2.8 l-6.92 0 l0 2.58 l6.4 0 l0 2.72 l-6.4 0 l0 2.8 l6.94 0 l0 2.8 l-10.04 0 z"></path></g><g id="SvgjsG4323" featureKey="sloganFeature-0" transform="matrix(0.5745764853547589,0,0,0.5745764853547589,19.023220084488678,143.66745627535062)" fill="#4c5d6d"><path d="M11.88 11.06 c0 2.26 -1.06 4.2 -3.24 4.84 l3.02 4.1 l-2.16 0 l-2.86 -3.88 l-3.14 0 l0 3.88 l-1.8 0 l0 -14 l5.28 0 c3.3 0 4.9 2.28 4.9 5.06 z M3.5 7.68 l0 6.74 l3.4 0 c2.26 0 3.18 -1.66 3.18 -3.36 s-0.92 -3.38 -3.18 -3.38 l-3.4 0 z M26.417 18.28 l0.12 1.72 l-8.52 0 l0 -14 l8.12 0 l0.14 1.72 l-6.46 0 l0 3.42 l4.38 0 l0 1.72 l-4.38 0 l0 5.42 l6.6 0 z M41.694 20 l-1.22 -2.84 l-6.24 0 l-1.22 2.84 l-1.92 0 l6.16 -14.2 l0.2 0 l6.16 14.2 l-1.92 0 z M34.954 15.48 l4.8 0 l-2.4 -5.54 z M48.411 13 c0 -4.04 3.18 -7.2 7.18 -7.2 c1.68 0 3.28 0.56 4.7 1.64 l-0.9 1.4 c-1.18 -0.9 -2.4 -1.34 -3.8 -1.34 c-3.02 0 -5.38 2.42 -5.38 5.5 s2.38 5.5 5.38 5.5 c1.52 0 2.82 -0.48 3.8 -1.42 l0.92 1.38 c-1.22 1.1 -2.94 1.74 -4.72 1.74 c-4 0 -7.18 -3.18 -7.18 -7.2 z M75.008 6 l1.8 0 l0 14 l-1.8 0 l0 -6.44 l-6.94 0 l0 6.44 l-1.8 0 l0 -14 l1.8 0 l0 5.84 l6.94 0 l0 -5.84 z M95.542 7.720000000000001 l0 4.32 l4.28 0 l0 1.72 l-4.28 0 l0 6.24 l-1.8 0 l0 -14 l7.96 0 l0.12 1.72 l-6.28 0 z M114.37899999999999 20.2 c-4 0 -7.18 -3.2 -7.18 -7.2 s3.18 -7.2 7.18 -7.2 s7.18 3.2 7.18 7.2 s-3.18 7.2 -7.18 7.2 z M114.37899999999999 18.48 c3.04 0 5.32 -2.38 5.32 -5.48 s-2.28 -5.48 -5.32 -5.48 c-3.06 0 -5.34 2.38 -5.34 5.48 s2.28 5.48 5.34 5.48 z M137.936 11.06 c0 2.26 -1.06 4.2 -3.24 4.84 l3.02 4.1 l-2.16 0 l-2.86 -3.88 l-3.14 0 l0 3.88 l-1.8 0 l0 -14 l5.28 0 c3.3 0 4.9 2.28 4.9 5.06 z M129.55599999999998 7.68 l0 6.74 l3.4 0 c2.26 0 3.18 -1.66 3.18 -3.36 s-0.92 -3.38 -3.18 -3.38 l-3.4 0 z M163.01 7.720000000000001 l-4.08 0 l0 12.28 l-1.8 0 l0 -12.28 l-4.1 0 l0.12 -1.72 l9.74 0 z M177.28699999999998 6 l1.8 0 l0 14 l-1.8 0 l0 -6.44 l-6.94 0 l0 6.44 l-1.8 0 l0 -14 l1.8 0 l0 5.84 l6.94 0 l0 -5.84 z M194.22399999999996 18.28 l0.12 1.72 l-8.52 0 l0 -14 l8.12 0 l0.14 1.72 l-6.46 0 l0 3.42 l4.38 0 l0 1.72 l-4.38 0 l0 5.42 l6.6 0 z M209.71799999999996 18.54 c0.88 0.82 2.7 1.66 4.52 1.66 c2.8 0 4.58 -1.44 4.58 -3.7 c0 -1.84 -0.88 -2.92 -3.92 -4.64 c-2.32 -1.34 -2.88 -1.78 -2.88 -2.66 c0 -0.94 0.88 -1.68 2.36 -1.68 c0.86 0 2 0.38 2.66 0.8 l0.96 -1.44 c-0.94 -0.62 -2.42 -1.08 -3.6 -1.08 c-2.58 0 -4.3 1.48 -4.3 3.42 c0 1.72 0.86 2.58 3.5 4.02 c2.34 1.28 3.3 2.22 3.3 3.24 c0 1.2 -1.04 1.92 -2.66 1.92 c-1.4 0 -2.8 -0.66 -3.5 -1.3 z M233.51499999999996 7.720000000000001 l-4.08 0 l0 12.28 l-1.8 0 l0 -12.28 l-4.1 0 l0.12 -1.72 l9.74 0 z M248.25199999999995 20 l-1.22 -2.84 l-6.24 0 l-1.22 2.84 l-1.92 0 l6.16 -14.2 l0.2 0 l6.16 14.2 l-1.92 0 z M241.51199999999994 15.48 l4.8 0 l-2.4 -5.54 z M265.70899999999995 11.06 c0 2.26 -1.06 4.2 -3.24 4.84 l3.02 4.1 l-2.16 0 l-2.86 -3.88 l-3.14 0 l0 3.88 l-1.8 0 l0 -14 l5.28 0 c3.3 0 4.9 2.28 4.9 5.06 z M257.32899999999995 7.68 l0 6.74 l3.4 0 c2.26 0 3.18 -1.66 3.18 -3.36 s-0.92 -3.38 -3.18 -3.38 l-3.4 0 z M271.066 18.54 c0.88 0.82 2.7 1.66 4.52 1.66 c2.8 0 4.58 -1.44 4.58 -3.7 c0 -1.84 -0.88 -2.92 -3.92 -4.64 c-2.32 -1.34 -2.88 -1.78 -2.88 -2.66 c0 -0.94 0.88 -1.68 2.36 -1.68 c0.86 0 2 0.38 2.66 0.8 l0.96 -1.44 c-0.94 -0.62 -2.42 -1.08 -3.6 -1.08 c-2.58 0 -4.3 1.48 -4.3 3.42 c0 1.72 0.86 2.58 3.5 4.02 c2.34 1.28 3.3 2.22 3.3 3.24 c0 1.2 -1.04 1.92 -2.66 1.92 c-1.4 0 -2.8 -0.66 -3.5 -1.3 z"></path></g>
			</g>
		</svg>
	