
        <svg xmlns="http://www.w3.org/2000/svg" xmlns:xlink="http://www.w3.org/1999/xlink" version="1.1" width="3230.769230769231" height="2771.8976558770587" viewBox="0 0 3230.769230769231 2771.8976558770587">
			
			<g transform="scale(11.538461538461538) translate(10, 10)">
				<defs id="SvgjsDefs8533"><linearGradient id="SvgjsLinearGradient8540"><stop id="SvgjsStop8541" stop-color="#8f5e25" offset="0"/><stop id="SvgjsStop8542" stop-color="#fbf4a1" offset="0.5"/><stop id="SvgjsStop8543" stop-color="#8f5e25" offset="1"/></linearGradient><linearGradient id="SvgjsLinearGradient8544"><stop id="SvgjsStop8545" stop-color="#8f5e25" offset="0"/><stop id="SvgjsStop8546" stop-color="#fbf4a1" offset="0.5"/><stop id="SvgjsStop8547" stop-color="#8f5e25" offset="1"/></linearGradient><linearGradient id="SvgjsLinearGradient8548"><stop id="SvgjsStop8549" stop-color="#8f5e25" offset="0"/><stop id="SvgjsStop8550" stop-color="#fbf4a1" offset="0.5"/><stop id="SvgjsStop8551" stop-color="#8f5e25" offset="1"/></linearGradient></defs><g id="SvgjsG8534" featureKey="symbolFeature-0" transform="matrix(1.3959054324744564,0,0,1.3959054324744564,60.7054565640972,17.020668529784103)" fill="#000"><path xmlns="http://www.w3.org/2000/svg" d="M25.687,50.333c-0.001,0.038-0.001,0.079,0,0.116l1.5,38.717l1.5-38.717c0.032-0.828-0.613-1.526-1.442-1.558  C26.417,48.859,25.719,49.505,25.687,50.333z"/><path xmlns="http://www.w3.org/2000/svg" d="M14.284,49.819c-0.001,0.032-0.001,0.068,0,0.1L15.784,95l1.5-45.081c0.028-0.828-0.622-1.522-1.45-1.55  C15.006,48.341,14.312,48.991,14.284,49.819z"/><path xmlns="http://www.w3.org/2000/svg" d="M84.531,49.602c-0.828-0.036-1.529,0.607-1.565,1.435c-0.002,0.043-0.002,0.088,0,0.13l1.5,34.739l1.5-34.739  C86.002,50.338,85.36,49.638,84.531,49.602z"/><path xmlns="http://www.w3.org/2000/svg" d="M71.033,51.327c-0.001,0.034-0.001,0.071,0,0.105l1.5,42.96l1.5-42.96c0.029-0.828-0.619-1.523-1.448-1.552  S71.062,50.499,71.033,51.327z"/><path xmlns="http://www.w3.org/2000/svg" d="M41.598,40.741c-0.001,0.026-0.001,0.057,0,0.084l1.5,53.832l1.5-53.832c0.023-0.828-0.63-1.519-1.458-1.542  C42.311,39.26,41.621,39.912,41.598,40.741z"/><path xmlns="http://www.w3.org/2000/svg" d="M48.493,37.346c-0.001,0.031-0.001,0.066,0,0.096l1.5,46.672l1.5-46.672c0.027-0.828-0.623-1.522-1.452-1.548  C49.213,35.868,48.52,36.518,48.493,37.346z"/><path xmlns="http://www.w3.org/2000/svg" d="M56.448,40.467c-0.001,0.029-0.001,0.063,0,0.092l1.5,48.794l1.5-48.794c0.025-0.828-0.625-1.521-1.454-1.546  C57.166,38.988,56.474,39.639,56.448,40.467z"/><path xmlns="http://www.w3.org/2000/svg" d="M66.594,20.502c1.008-0.8,1.177-2.266,0.378-3.274c-0.413-0.521-1.003-0.817-1.616-0.873l-0.112-0.01l-5.517-0.479  c-1.278-0.108-2.556-0.22-3.835-0.321l-3.383-8.818c-0.532-1.387-2.087-2.08-3.474-1.548c-0.738,0.283-1.283,0.866-1.548,1.548  l-3.383,8.822c-1.279,0.103-2.557,0.219-3.835,0.323l-5.517,0.478l-0.102,0.009c-1.28,0.111-2.227,1.238-2.116,2.518  c0.057,0.66,0.391,1.237,0.871,1.62c1.445,1.148,2.937,2.239,4.407,3.357l3.543,2.672c-0.629,3.203-1.286,6.399-1.84,9.622  l-0.032,0.187c-0.107,0.624,0.311,1.216,0.935,1.323c0.322,0.055,0.639-0.032,0.882-0.213c1.394-1.047,2.797-2.134,4.233-3.28  l4.464-3.524l4.463,3.527c1.436,1.147,2.838,2.233,4.231,3.281c0.508,0.382,1.229,0.28,1.611-0.228  c0.198-0.263,0.266-0.582,0.215-0.883l-0.033-0.193c-0.553-3.221-1.208-6.416-1.838-9.618l3.541-2.669  C63.66,22.745,65.148,21.649,66.594,20.502z M59.042,36.049l-9.045-5.708l-9.045,5.708l2.691-10.27  c0.021-0.081-0.009-0.164-0.07-0.215l-8.058-6.672l10.446-0.605c0.108-0.006,0.197-0.077,0.235-0.171l3.802-9.589l3.801,9.59  c0.039,0.101,0.134,0.164,0.235,0.171l10.444,0.605l-8.057,6.671c-0.065,0.053-0.089,0.139-0.07,0.215L59.042,36.049z"/><path xmlns="http://www.w3.org/2000/svg" d="M33.314,35.331c1.011-0.788,1.192-2.247,0.404-3.258c-0.405-0.52-0.987-0.82-1.595-0.882l-0.16-0.016l-3.765-0.373  c-0.691-0.066-1.381-0.137-2.072-0.202l-2.11-5.563c-0.525-1.387-2.076-2.085-3.463-1.56c-0.745,0.282-1.295,0.871-1.56,1.56  l-2.11,5.569c-0.69,0.068-1.381,0.14-2.071,0.203l-3.765,0.372l-0.15,0.015c-1.273,0.126-2.204,1.26-2.078,2.533  c0.065,0.654,0.401,1.222,0.88,1.599c0.994,0.776,2.034,1.495,3.052,2.241l2.216,1.603c-0.348,2.054-0.712,4.104-0.987,6.177  l-0.037,0.278c-0.082,0.615,0.351,1.18,0.966,1.261c0.318,0.042,0.625-0.055,0.856-0.242c0.901-0.733,1.81-1.505,2.754-2.336  l2.984-2.58l2.984,2.583c0.943,0.832,1.852,1.603,2.752,2.337c0.483,0.394,1.193,0.321,1.587-0.161  c0.204-0.25,0.282-0.56,0.244-0.857l-0.038-0.285c-0.274-2.072-0.637-4.12-0.985-6.172l2.214-1.6  C31.283,36.831,32.319,36.106,33.314,35.331z M27.59,45.251l-6.085-3.821l-6.086,3.822l1.81-6.873  c0.021-0.081-0.009-0.164-0.07-0.215l-5.349-4.44l6.942-0.393c0.107-0.006,0.197-0.077,0.235-0.171l2.517-6.325l2.516,6.326  c0.039,0.101,0.134,0.164,0.235,0.171l6.941,0.393l-5.347,4.439c-0.065,0.053-0.089,0.139-0.07,0.215L27.59,45.251z"/><path xmlns="http://www.w3.org/2000/svg" d="M90.297,36.314c1.011-0.788,1.192-2.247,0.404-3.258c-0.405-0.52-0.987-0.82-1.595-0.882l-0.16-0.016l-3.765-0.373  c-0.691-0.066-1.381-0.137-2.072-0.202l-2.11-5.563c-0.525-1.387-2.076-2.085-3.463-1.56c-0.745,0.282-1.295,0.871-1.56,1.56  l-2.11,5.569c-0.69,0.068-1.381,0.14-2.071,0.203l-3.765,0.372l-0.149,0.015c-1.273,0.126-2.204,1.26-2.078,2.533  c0.065,0.654,0.401,1.222,0.88,1.599c0.994,0.776,2.034,1.495,3.052,2.241l2.216,1.603c-0.348,2.054-0.712,4.104-0.987,6.177  l-0.037,0.278c-0.082,0.615,0.351,1.18,0.966,1.261c0.318,0.042,0.625-0.055,0.856-0.242c0.901-0.733,1.81-1.505,2.754-2.336  l2.984-2.58l2.984,2.583c0.943,0.832,1.852,1.603,2.752,2.337c0.483,0.394,1.193,0.321,1.587-0.161  c0.204-0.25,0.283-0.56,0.244-0.857l-0.038-0.285c-0.274-2.072-0.637-4.12-0.985-6.172l2.214-1.6  C88.266,37.813,89.302,37.089,90.297,36.314z M84.574,46.233l-6.085-3.821l-6.086,3.822l1.81-6.873  c0.021-0.081-0.009-0.164-0.07-0.215l-5.349-4.44l6.942-0.393c0.107-0.006,0.197-0.077,0.235-0.171l2.517-6.326l2.516,6.326  c0.039,0.101,0.134,0.164,0.235,0.171l6.941,0.393l-5.347,4.439c-0.065,0.053-0.089,0.139-0.07,0.215L84.574,46.233z"/></g><g id="SvgjsG8535" featureKey="nameFeature-0" transform="matrix(0.8292003152636791,0,0,0.8292003152636791,-0.7126145813928636,164.55820434745033)" fill="#000"><path d="M8.2422 40 l-7.3828 -28.223 l6.0938 0 l5.5078 21.367 l6.3086 -21.367 l4.9414 0 l6.2695 21.367 l5.5664 -21.367 l6.0742 0 l-7.3828 28.223 l-7.5391 0 l-5.4688 -17.441 l-5.4492 17.441 l-7.5391 0 z M62.26528125 40.39063 c-8.3008 0 -14.434 -5.6641 -14.434 -14.512 c0 -8.8672 6.1328 -14.492 14.434 -14.492 c8.2813 0 14.414 5.625 14.414 14.492 c0 8.8477 -6.1328 14.512 -14.414 14.512 z M62.26528125 35.0195 c4.8633 0 8.5938 -3.418 8.5938 -9.1406 c0 -5.7031 -3.7305 -9.1016 -8.5938 -9.1016 s-8.5938 3.3984 -8.5938 9.1016 c0 5.7227 3.7305 9.1406 8.5938 9.1406 z M100.60578125 40 l-7.3438 -12.422 l-1.6992 0 l0 12.422 l-5.8594 0 l0 -28.223 l10.234 0 c6.3867 0 9.082 3.7695 9.082 8.4375 c0 3.7891 -2.1484 6.25 -5.9766 7.0703 l8.4961 12.715 l-6.9336 0 z M91.56248125 16.641 l0 6.7383 l3.457 0 c3.125 0 4.3945 -1.3281 4.3945 -3.3594 c0 -2.0117 -1.2695 -3.3789 -4.3945 -3.3789 l-3.457 0 z M132.16840625 40 l-8.7695 -11.992 l-2.0703 0 l0 11.992 l-5.8594 0 l0 -28.223 l5.8594 0 l0 11.094 l1.9922 0 l8.8477 -11.094 l7.1484 0 l-10.938 13.496 l11.27 14.727 l-7.4805 0 z M159.980125 40.39063 c-8.3008 0 -14.434 -5.6445 -14.434 -14.512 s6.1328 -14.492 14.434 -14.492 c6.2891 0 11.328 3.2227 13.34 8.5742 l-5.4688 1.9922 c-1.25 -3.2813 -4.2383 -5.1758 -7.8711 -5.1758 c-4.8633 0 -8.5938 3.3984 -8.5938 9.1016 s3.7305 9.1211 8.5938 9.1211 c3.6328 0 6.6211 -1.9141 7.8711 -5.1953 l5.4688 1.9922 c-2.0117 5.3516 -7.0508 8.5938 -13.34 8.5938 z M198.12546875 16.934 l-10.469 0 l0 6.4063 l9.2773 0 l0 5.0977 l-9.2773 0 l0 6.3867 l10.469 0 l0 5.1758 l-16.367 0 l0 -28.223 l16.367 0 l0 5.1563 z M227.070625 11.777000000000001 l5.8398 0 l0 28.223 l-6.7773 0 l-12.5 -20.176 l0 20.176 l-5.8398 0 l0 -28.223 l6.6992 0 l12.578 20.059 l0 -20.059 z M260.2153125 11.777000000000001 l0 5.1563 l-6.6992 0 l0 23.066 l-5.8008 0 l0 -23.066 l-6.7383 0 l0 -5.1563 l19.238 0 z M283.18390625 40 l-7.3438 -12.422 l-1.6992 0 l0 12.422 l-5.8594 0 l0 -28.223 l10.234 0 c6.3867 0 9.082 3.7695 9.082 8.4375 c0 3.7891 -2.1484 6.25 -5.9766 7.0703 l8.4961 12.715 l-6.9336 0 z M274.14060625 16.641 l0 6.7383 l3.457 0 c3.125 0 4.3945 -1.3281 4.3945 -3.3594 c0 -2.0117 -1.2695 -3.3789 -4.3945 -3.3789 l-3.457 0 z M314.41453125 16.934 l-10.469 0 l0 6.4063 l9.2773 0 l0 5.0977 l-9.2773 0 l0 6.3867 l10.469 0 l0 5.1758 l-16.367 0 l0 -28.223 l16.367 0 l0 5.1563 z"/></g><g id="SvgjsG8536" featureKey="sloganFeature-0" transform="matrix(0.5869423989555478,0,0,0.5869423989555478,48.49742749225891,208.7622762825623)" fill="#000"><path d="M3.88 15.9 l0 2.86 c0 0.44 -0.34 0.64 -0.66 0.64 c-0.34 0 -0.66 -0.2 -0.66 -0.64 l0 -10.74 c0 -0.4 0.22 -0.66 0.66 -0.66 l2.7 0 c0.76 0 3.16 0.22 3.16 2.92 l0 2.5 c0 1.52 -0.56 2.48 -1.84 2.9 l1.36 2.74 c0.28 0.54 -0.14 0.98 -0.58 0.98 c-0.24 0 -0.54 -0.16 -0.7 -0.5 l-1.46 -3 l-1.98 0 z M7.76 12.780000000000001 l0 -2.5 c0 -0.48 -0.18 -1.58 -1.84 -1.58 l-2.04 0 l0 5.86 l1.86 0 c0.98 0 2.02 -0.22 2.02 -1.78 z M18.0195 18.7 l0 -10.64 c0 -0.46 0.36 -0.7 0.7 -0.7 l4.6 0 c0.44 0 0.66 0.32 0.66 0.66 s-0.22 0.68 -0.66 0.68 l-3.96 0 l0 3.88 l3.14 0 c0.46 0 0.68 0.32 0.68 0.66 s-0.24 0.7 -0.68 0.7 l-3.14 0 l0 4.14 l3.96 0 c0.42 0 0.64 0.34 0.64 0.66 c0 0.34 -0.22 0.66 -0.64 0.66 l-4.6 0 c-0.34 0 -0.7 -0.12 -0.7 -0.7 z M38.559 18.86 l-0.78 -2.54 l-3.72 0 l-0.74 2.5 c-0.26 0.86 -1.58 0.6 -1.3 -0.28 c1.04 -3.5 2.06 -7.06 3.08 -10.6 c0.12 -0.38 0.44 -0.58 0.76 -0.58 c0.3 0 0.62 0.2 0.74 0.58 l3.18 10.6 c0.22 0.76 -0.96 1.18 -1.22 0.32 z M35.899 10.06 l-1.44 4.92 l2.94 0 c-0.5 -1.68 -0.96 -3.12 -1.5 -4.92 z M51.9785 7.32 c1.82 0 3.76 0.7 3.76 2.76 c0 0.48 -0.32 0.7 -0.66 0.7 s-0.7 -0.24 -0.7 -0.7 c0 -0.16 -0.1 -1.46 -2.4 -1.46 c-1.82 0 -2.62 0.72 -2.62 2.44 l0 4.82 c0 1.74 0.98 2.28 2.62 2.28 c1.66 0 2.58 -0.68 2.58 -2.3 c0 -0.46 0.34 -0.68 0.66 -0.68 c0.34 0 0.66 0.22 0.66 0.68 c0 2.7 -1.5 3.6 -3.9 3.6 c-2.6 0 -3.92 -0.96 -3.92 -3.58 l0 -4.82 c0 -2.84 1.42 -3.74 3.92 -3.74 z M64.69800000000001 18.76 l0 -10.76 c0 -0.42 0.32 -0.62 0.66 -0.62 s0.68 0.2 0.68 0.62 l0 4.58 l4.54 0 l0 -4.58 c0 -0.42 0.32 -0.64 0.64 -0.64 s0.66 0.22 0.66 0.64 l0 10.76 c0 0.42 -0.34 0.64 -0.66 0.64 s-0.64 -0.22 -0.64 -0.64 l0 -4.82 l-4.54 0 l0 4.82 c0 0.42 -0.34 0.64 -0.68 0.64 s-0.66 -0.22 -0.66 -0.64 z M92.69700000000002 18.76 l0 -10.76 c0 -0.48 0.38 -0.64 0.66 -0.64 l4.6 0 c0.44 0 0.66 0.32 0.66 0.66 s-0.22 0.68 -0.66 0.68 l-3.94 0 l0 3.88 l3.14 0 c0.44 0 0.68 0.34 0.68 0.68 s-0.24 0.68 -0.68 0.68 l-3.14 0 l0 4.82 c0 0.42 -0.34 0.64 -0.66 0.64 c-0.34 0 -0.66 -0.22 -0.66 -0.64 z M106.55650000000001 15.86 l0 -4.96 c0 -2.4 1.24 -3.68 3.64 -3.68 l0.52 0 c2.38 0 3.64 1.28 3.64 3.68 l0 4.96 c0 2.2 -1.46 3.64 -3.64 3.64 l-0.52 0 c-2.22 0 -3.64 -1.46 -3.64 -3.64 z M110.19650000000001 18.16 l0.52 0 c1.44 0 2.3 -0.9 2.3 -2.3 l0 -4.96 c0 -1.56 -0.76 -2.36 -2.3 -2.36 l-0.52 0 c-1.52 0 -2.36 0.82 -2.36 2.36 l0 4.96 c0 1.46 0.92 2.3 2.36 2.3 z M124.61600000000001 15.9 l0 2.86 c0 0.44 -0.34 0.64 -0.66 0.64 c-0.34 0 -0.66 -0.2 -0.66 -0.64 l0 -10.74 c0 -0.4 0.22 -0.66 0.66 -0.66 l2.7 0 c0.76 0 3.16 0.22 3.16 2.92 l0 2.5 c0 1.52 -0.56 2.48 -1.84 2.9 l1.36 2.74 c0.28 0.54 -0.14 0.98 -0.58 0.98 c-0.24 0 -0.54 -0.16 -0.7 -0.5 l-1.46 -3 l-1.98 0 z M128.496 12.780000000000001 l0 -2.5 c0 -0.48 -0.18 -1.58 -1.84 -1.58 l-2.04 0 l0 5.86 l1.86 0 c0.98 0 2.02 -0.22 2.02 -1.78 z M150.03500000000003 7.359999999999999 l6.04 0 c0.42 0 0.62 0.34 0.62 0.68 s-0.2 0.66 -0.62 0.66 l-2.28 0 l0 10.06 c0 0.42 -0.34 0.64 -0.68 0.64 s-0.66 -0.22 -0.66 -0.64 l0 -10.06 l-2.42 0 c-0.42 0 -0.62 -0.32 -0.62 -0.66 s0.2 -0.68 0.62 -0.68 z M165.01450000000003 18.76 l0 -10.76 c0 -0.42 0.32 -0.62 0.66 -0.62 s0.68 0.2 0.68 0.62 l0 4.58 l4.54 0 l0 -4.58 c0 -0.42 0.32 -0.64 0.64 -0.64 s0.66 0.22 0.66 0.64 l0 10.76 c0 0.42 -0.34 0.64 -0.66 0.64 s-0.64 -0.22 -0.64 -0.64 l0 -4.82 l-4.54 0 l0 4.82 c0 0.42 -0.34 0.64 -0.68 0.64 s-0.66 -0.22 -0.66 -0.64 z M181.37400000000002 18.7 l0 -10.64 c0 -0.46 0.36 -0.7 0.7 -0.7 l4.6 0 c0.44 0 0.66 0.32 0.66 0.66 s-0.22 0.68 -0.66 0.68 l-3.96 0 l0 3.88 l3.14 0 c0.46 0 0.68 0.32 0.68 0.66 s-0.24 0.7 -0.68 0.7 l-3.14 0 l0 4.14 l3.96 0 c0.42 0 0.64 0.34 0.64 0.66 c0 0.34 -0.22 0.66 -0.64 0.66 l-4.6 0 c-0.34 0 -0.7 -0.12 -0.7 -0.7 z M207.37300000000002 17.68 c-0.44 -0.82 0.68 -1.42 1.2 -0.6 c0.26 0.42 1.04 1.14 2.28 1.14 c0.52 0 1.82 -0.38 2 -1.86 c0.12 -0.9 -0.74 -1.78 -2.22 -2.52 c-2.08 -0.98 -3.66 -1.84 -3.66 -3.56 c0 -2.04 1.72 -3 3.56 -3 c1.66 0 2.58 1.02 2.9 1.54 c0.46 0.74 -0.54 1.46 -1.1 0.74 c-0.28 -0.36 -0.82 -0.96 -1.8 -0.96 c-1.1 0 -2.24 0.52 -2.24 1.68 c0 0.92 1.02 1.44 2.54 2.16 c1.78 0.88 3.64 1.74 3.36 4.08 c-0.22 1.84 -1.62 3.02 -3.34 3.02 c-1.3 0 -2.9 -0.7 -3.48 -1.86 z M222.41250000000002 7.359999999999999 l6.04 0 c0.42 0 0.62 0.34 0.62 0.68 s-0.2 0.66 -0.62 0.66 l-2.28 0 l0 10.06 c0 0.42 -0.34 0.64 -0.68 0.64 s-0.66 -0.22 -0.66 -0.64 l0 -10.06 l-2.42 0 c-0.42 0 -0.62 -0.32 -0.62 -0.66 s0.2 -0.68 0.62 -0.68 z M243.29200000000003 18.86 l-0.78 -2.54 l-3.72 0 l-0.74 2.5 c-0.26 0.86 -1.58 0.6 -1.3 -0.28 c1.04 -3.5 2.06 -7.06 3.08 -10.6 c0.12 -0.38 0.44 -0.58 0.76 -0.58 c0.3 0 0.62 0.2 0.74 0.58 l3.18 10.6 c0.22 0.76 -0.96 1.18 -1.22 0.32 z M240.63200000000003 10.06 l-1.44 4.92 l2.94 0 c-0.5 -1.68 -0.96 -3.12 -1.5 -4.92 z M254.41150000000002 15.9 l0 2.86 c0 0.44 -0.34 0.64 -0.66 0.64 c-0.34 0 -0.66 -0.2 -0.66 -0.64 l0 -10.74 c0 -0.4 0.22 -0.66 0.66 -0.66 l2.7 0 c0.76 0 3.16 0.22 3.16 2.92 l0 2.5 c0 1.52 -0.56 2.48 -1.84 2.9 l1.36 2.74 c0.28 0.54 -0.14 0.98 -0.58 0.98 c-0.24 0 -0.54 -0.16 -0.7 -0.5 l-1.46 -3 l-1.98 0 z M258.29150000000004 12.780000000000001 l0 -2.5 c0 -0.48 -0.18 -1.58 -1.84 -1.58 l-2.04 0 l0 5.86 l1.86 0 c0.98 0 2.02 -0.22 2.02 -1.78 z M268.31100000000004 17.68 c-0.44 -0.82 0.68 -1.42 1.2 -0.6 c0.26 0.42 1.04 1.14 2.28 1.14 c0.52 0 1.82 -0.38 2 -1.86 c0.12 -0.9 -0.74 -1.78 -2.22 -2.52 c-2.08 -0.98 -3.66 -1.84 -3.66 -3.56 c0 -2.04 1.72 -3 3.56 -3 c1.66 0 2.58 1.02 2.9 1.54 c0.46 0.74 -0.54 1.46 -1.1 0.74 c-0.28 -0.36 -0.82 -0.96 -1.8 -0.96 c-1.1 0 -2.24 0.52 -2.24 1.68 c0 0.92 1.02 1.44 2.54 2.16 c1.78 0.88 3.64 1.74 3.36 4.08 c-0.22 1.84 -1.62 3.02 -3.34 3.02 c-1.3 0 -2.9 -0.7 -3.48 -1.86 z"/></g>
			</g>
		</svg>
	